<mxfile host="Electron" agent="Mozilla/5.0 (Windows NT 10.0; Win64; x64) AppleWebKit/537.36 (KHTML, like Gecko) draw.io/25.0.1 Chrome/128.0.6613.186 Electron/32.2.6 Safari/537.36" version="25.0.1">
  <diagram name="Page-1" id="4m2vKYtojVbFhh3aF1HG">
    <mxGraphModel dx="371" dy="-229" grid="1" gridSize="10" guides="1" tooltips="1" connect="1" arrows="1" fold="1" page="1" pageScale="1" pageWidth="850" pageHeight="1100" math="0" shadow="0">
      <root>
        <mxCell id="0" />
        <mxCell id="1" parent="0" />
        <mxCell id="AOHGQarf9SQkaAlcSlwE-1" value="" style="group" vertex="1" connectable="0" parent="1">
          <mxGeometry x="1910" y="1280" width="210.01" height="22.5" as="geometry" />
        </mxCell>
        <mxCell id="AOHGQarf9SQkaAlcSlwE-2" value="&lt;font face=&quot;Comic Sans MS&quot;&gt;&lt;b&gt;Assesment 1: Modulation&lt;/b&gt;&lt;/font&gt;" style="rounded=0;whiteSpace=wrap;html=1;fillColor=#FFFF33;fontColor=#000000;strokeColor=#000000;" vertex="1" parent="AOHGQarf9SQkaAlcSlwE-1">
          <mxGeometry x="-140" width="294.38" height="22.5" as="geometry" />
        </mxCell>
        <mxCell id="AOHGQarf9SQkaAlcSlwE-3" value="" style="rounded=0;whiteSpace=wrap;html=1;fillColor=#999900;fontColor=#000000;strokeColor=#000000;" vertex="1" parent="AOHGQarf9SQkaAlcSlwE-1">
          <mxGeometry x="154.38" width="55.63" height="22.5" as="geometry" />
        </mxCell>
        <mxCell id="AOHGQarf9SQkaAlcSlwE-4" value="" style="verticalLabelPosition=bottom;verticalAlign=top;html=1;shape=mxgraph.basic.tick;strokeColor=#000000;fillColor=#000000;" vertex="1" parent="AOHGQarf9SQkaAlcSlwE-1">
          <mxGeometry x="171.59249999999997" y="4.5" width="19.190000000000005" height="15.5" as="geometry" />
        </mxCell>
        <mxCell id="AOHGQarf9SQkaAlcSlwE-13" value="&lt;b&gt;&lt;font color=&quot;#e8e7e8&quot; style=&quot;font-size: 15px;&quot; face=&quot;Comic Sans MS&quot;&gt;Architecture and Networks&lt;/font&gt;&lt;/b&gt;" style="rounded=1;whiteSpace=wrap;html=1;fillColor=#0000FF;fontColor=#ffffff;strokeColor=#0000FF;arcSize=50;" vertex="1" parent="1">
          <mxGeometry x="1360" y="1170" width="270" height="26" as="geometry" />
        </mxCell>
        <mxCell id="AOHGQarf9SQkaAlcSlwE-14" value="&lt;b&gt;&lt;font face=&quot;Comic Sans MS&quot;&gt;&amp;nbsp;&lt;u&gt;&lt;font style=&quot;font-size: 13px;&quot;&gt;Java Learning Roadmap:&lt;/font&gt;&lt;/u&gt;&lt;/font&gt;&lt;/b&gt;&lt;div&gt;&lt;font face=&quot;Comic Sans MS&quot;&gt;&lt;b&gt;&amp;nbsp;Author: Tristan Sim&lt;/b&gt;&lt;/font&gt;&lt;/div&gt;&lt;div&gt;&lt;font face=&quot;Comic Sans MS&quot;&gt;&lt;b&gt;&amp;nbsp;Sources: 1) Monash ITO 4131 (Java Programming)&amp;nbsp;&lt;/b&gt;&lt;/font&gt;&lt;/div&gt;&lt;div&gt;&lt;font face=&quot;Comic Sans MS&quot;&gt;&lt;b&gt;&amp;nbsp; &amp;nbsp; &amp;nbsp; &amp;nbsp; &amp;nbsp; &amp;nbsp;2) https://roadmap.sh/java&lt;/b&gt;&lt;/font&gt;&lt;/div&gt;" style="rounded=0;whiteSpace=wrap;html=1;fillColor=#E6E6E6;fontColor=#000000;strokeColor=#000000;align=left;" vertex="1" parent="1">
          <mxGeometry x="920" y="1170" width="380" height="80" as="geometry" />
        </mxCell>
        <mxCell id="AOHGQarf9SQkaAlcSlwE-15" value="&lt;font face=&quot;Comic Sans MS&quot;&gt;&lt;b&gt;2-hour Quiz (Week 1-3)&lt;/b&gt;&lt;/font&gt;" style="rounded=0;whiteSpace=wrap;html=1;fillColor=#FFFF99;fontColor=#000000;strokeColor=#000000;" vertex="1" parent="1">
          <mxGeometry x="1770" y="1302.5" width="294.38" height="22.5" as="geometry" />
        </mxCell>
        <mxCell id="AOHGQarf9SQkaAlcSlwE-16" value="&lt;b style=&quot;font-family: &amp;quot;Comic Sans MS&amp;quot;;&quot;&gt;25%&lt;/b&gt;" style="rounded=0;whiteSpace=wrap;html=1;fillColor=#ffff99;fontColor=#000000;strokeColor=#000000;" vertex="1" parent="1">
          <mxGeometry x="2064.38" y="1302.5" width="55.63" height="22.5" as="geometry" />
        </mxCell>
        <mxCell id="AOHGQarf9SQkaAlcSlwE-18" value="&lt;font face=&quot;Comic Sans MS&quot;&gt;&lt;b&gt;26th January Sunday (9 AM to 11:55 PM)&lt;/b&gt;&lt;/font&gt;" style="rounded=0;whiteSpace=wrap;html=1;fillColor=#FFFF99;fontColor=#000000;strokeColor=#000000;" vertex="1" parent="1">
          <mxGeometry x="1770" y="1325" width="350" height="22.5" as="geometry" />
        </mxCell>
        <mxCell id="AOHGQarf9SQkaAlcSlwE-19" value="" style="group" vertex="1" connectable="0" parent="1">
          <mxGeometry x="1910" y="1380" width="210.01" height="22.5" as="geometry" />
        </mxCell>
        <mxCell id="AOHGQarf9SQkaAlcSlwE-20" value="&lt;font face=&quot;Comic Sans MS&quot;&gt;&lt;b&gt;Assesment 2: Network Traffic Analysis&lt;/b&gt;&lt;/font&gt;" style="rounded=0;whiteSpace=wrap;html=1;fillColor=#FFFF33;fontColor=#000000;strokeColor=#000000;" vertex="1" parent="AOHGQarf9SQkaAlcSlwE-19">
          <mxGeometry x="-140" width="294.38" height="22.5" as="geometry" />
        </mxCell>
        <mxCell id="AOHGQarf9SQkaAlcSlwE-21" value="" style="rounded=0;whiteSpace=wrap;html=1;fillColor=#999900;fontColor=#000000;strokeColor=#000000;" vertex="1" parent="AOHGQarf9SQkaAlcSlwE-19">
          <mxGeometry x="154.38" width="55.63" height="22.5" as="geometry" />
        </mxCell>
        <mxCell id="AOHGQarf9SQkaAlcSlwE-22" value="" style="verticalLabelPosition=bottom;verticalAlign=top;html=1;shape=mxgraph.basic.tick;strokeColor=#000000;fillColor=#000000;" vertex="1" parent="AOHGQarf9SQkaAlcSlwE-19">
          <mxGeometry x="171.59249999999997" y="4.5" width="19.190000000000005" height="15.5" as="geometry" />
        </mxCell>
        <mxCell id="AOHGQarf9SQkaAlcSlwE-23" value="&lt;font face=&quot;Comic Sans MS&quot;&gt;&lt;b&gt;2-hour Quiz (Week 1-5)&lt;/b&gt;&lt;/font&gt;" style="rounded=0;whiteSpace=wrap;html=1;fillColor=#FFFF99;fontColor=#000000;strokeColor=#000000;" vertex="1" parent="1">
          <mxGeometry x="1770" y="1402.5" width="294.38" height="22.5" as="geometry" />
        </mxCell>
        <mxCell id="AOHGQarf9SQkaAlcSlwE-24" value="&lt;b style=&quot;font-family: &amp;quot;Comic Sans MS&amp;quot;;&quot;&gt;25%&lt;/b&gt;" style="rounded=0;whiteSpace=wrap;html=1;fillColor=#ffff99;fontColor=#000000;strokeColor=#000000;" vertex="1" parent="1">
          <mxGeometry x="2064.38" y="1402.5" width="55.63" height="22.5" as="geometry" />
        </mxCell>
        <mxCell id="AOHGQarf9SQkaAlcSlwE-25" value="&lt;font face=&quot;Comic Sans MS&quot;&gt;&lt;b&gt;9th January Sunday (9 AM to 11:55 PM)&lt;/b&gt;&lt;/font&gt;" style="rounded=0;whiteSpace=wrap;html=1;fillColor=#FFFF99;fontColor=#000000;strokeColor=#000000;" vertex="1" parent="1">
          <mxGeometry x="1770" y="1425" width="350" height="22.5" as="geometry" />
        </mxCell>
        <mxCell id="AOHGQarf9SQkaAlcSlwE-26" value="" style="group" vertex="1" connectable="0" parent="1">
          <mxGeometry x="1910" y="1480" width="210.01" height="22.5" as="geometry" />
        </mxCell>
        <mxCell id="AOHGQarf9SQkaAlcSlwE-27" value="&lt;font face=&quot;Comic Sans MS&quot;&gt;&lt;b&gt;Assesment 3: Network Modelling &amp;amp; Simulation&lt;/b&gt;&lt;/font&gt;" style="rounded=0;whiteSpace=wrap;html=1;fillColor=#FFFF33;fontColor=#000000;strokeColor=#000000;" vertex="1" parent="AOHGQarf9SQkaAlcSlwE-26">
          <mxGeometry x="-140" width="294.38" height="22.5" as="geometry" />
        </mxCell>
        <mxCell id="AOHGQarf9SQkaAlcSlwE-28" value="" style="rounded=0;whiteSpace=wrap;html=1;fillColor=#999900;fontColor=#000000;strokeColor=#000000;" vertex="1" parent="AOHGQarf9SQkaAlcSlwE-26">
          <mxGeometry x="154.38" width="55.63" height="22.5" as="geometry" />
        </mxCell>
        <mxCell id="AOHGQarf9SQkaAlcSlwE-29" value="" style="verticalLabelPosition=bottom;verticalAlign=top;html=1;shape=mxgraph.basic.tick;strokeColor=#000000;fillColor=#000000;" vertex="1" parent="AOHGQarf9SQkaAlcSlwE-26">
          <mxGeometry x="171.59249999999997" y="4.5" width="19.190000000000005" height="15.5" as="geometry" />
        </mxCell>
        <mxCell id="AOHGQarf9SQkaAlcSlwE-30" value="&lt;font face=&quot;Comic Sans MS&quot;&gt;&lt;b&gt;Report and IMN Configuration File&lt;/b&gt;&lt;/font&gt;" style="rounded=0;whiteSpace=wrap;html=1;fillColor=#FFFF99;fontColor=#000000;strokeColor=#000000;" vertex="1" parent="1">
          <mxGeometry x="1770" y="1502.5" width="294.38" height="22.5" as="geometry" />
        </mxCell>
        <mxCell id="AOHGQarf9SQkaAlcSlwE-31" value="&lt;b style=&quot;font-family: &amp;quot;Comic Sans MS&amp;quot;;&quot;&gt;50%&lt;/b&gt;" style="rounded=0;whiteSpace=wrap;html=1;fillColor=#ffff99;fontColor=#000000;strokeColor=#000000;" vertex="1" parent="1">
          <mxGeometry x="2064.38" y="1502.5" width="55.63" height="22.5" as="geometry" />
        </mxCell>
        <mxCell id="AOHGQarf9SQkaAlcSlwE-32" value="&lt;font face=&quot;Comic Sans MS&quot;&gt;&lt;b&gt;9th January Sunday (9 AM to 11:55 PM)&lt;/b&gt;&lt;/font&gt;" style="rounded=0;whiteSpace=wrap;html=1;fillColor=#FFFF99;fontColor=#000000;strokeColor=#000000;" vertex="1" parent="1">
          <mxGeometry x="1770" y="1525" width="350" height="22.5" as="geometry" />
        </mxCell>
        <mxCell id="AOHGQarf9SQkaAlcSlwE-33" value="&lt;font face=&quot;Comic Sans MS&quot;&gt;&lt;b&gt;1) Network and Transport Layers&lt;/b&gt;&lt;/font&gt;&lt;div&gt;&lt;font face=&quot;Comic Sans MS&quot;&gt;&lt;b&gt;2) Transport Layers&lt;/b&gt;&lt;/font&gt;&lt;/div&gt;&lt;div&gt;&lt;font face=&quot;Comic Sans MS&quot;&gt;&lt;b&gt;3) Structures and Functions of LAN, Backbones and Wide Area Networks&lt;/b&gt;&lt;/font&gt;&lt;/div&gt;&lt;div&gt;&lt;font face=&quot;Comic Sans MS&quot;&gt;&lt;b&gt;4) Network Security&lt;/b&gt;&lt;/font&gt;&lt;/div&gt;" style="rounded=0;whiteSpace=wrap;html=1;fillColor=#FFFF99;fontColor=#000000;strokeColor=#000000;align=left;" vertex="1" parent="1">
          <mxGeometry x="1770.01" y="1547.5" width="350" height="92.5" as="geometry" />
        </mxCell>
      </root>
    </mxGraphModel>
  </diagram>
</mxfile>
